<?xml version="1.0" encoding="UTF-8" standalone="no"?>
<svg
   xmlns:dc="http://purl.org/dc/elements/1.1/"
   xmlns:cc="http://creativecommons.org/ns#"
   xmlns:rdf="http://www.w3.org/1999/02/22-rdf-syntax-ns#"
   xmlns:svg="http://www.w3.org/2000/svg"
   xmlns="http://www.w3.org/2000/svg"
   xmlns:sodipodi="http://sodipodi.sourceforge.net/DTD/sodipodi-0.dtd"
   xmlns:inkscape="http://www.inkscape.org/namespaces/inkscape"
   width="32"
   height="32"
   viewBox="0 0 8.4666666 8.4666666"
   version="1.1"
   id="svg8"
   inkscape:version="1.0.2-2 (e86c870879, 2021-01-15)"
   sodipodi:docname="frame_below.svg"
   inkscape:export-filename="D:\DEV_SRC\RxOT\DuAEF_Dugr\icons\w16\w16_lock.png"
   inkscape:export-xdpi="48.000004"
   inkscape:export-ydpi="48.000004">
  <defs
     id="defs2">
    <marker
       style="overflow:visible"
       id="Arrow1Lstart"
       refX="0.0"
       refY="0.0"
       orient="auto"
       inkscape:stockid="Arrow1Lstart"
       inkscape:isstock="true">
      <path
         transform="scale(0.8) translate(12.5,0)"
         style="fill-rule:evenodd;stroke:#000000;stroke-width:1.0pt"
         d="M 0.0,0.0 L 5.0,-5.0 L -12.5,0.0 L 5.0,5.0 L 0.0,0.0 z "
         id="path850" />
    </marker>
  </defs>
  <sodipodi:namedview
     id="base"
     pagecolor="#ffffff"
     bordercolor="#666666"
     borderopacity="1.0"
     inkscape:pageopacity="0.0"
     inkscape:pageshadow="2"
     inkscape:zoom="7.9999999"
     inkscape:cx="-26.534719"
     inkscape:cy="27.198825"
     inkscape:document-units="mm"
     inkscape:current-layer="layer1"
     showgrid="false"
     units="px"
     inkscape:window-width="3440"
     inkscape:window-height="1417"
     inkscape:window-x="1915"
     inkscape:window-y="-8"
     inkscape:window-maximized="1"
     inkscape:document-rotation="0">
    <sodipodi:guide
       position="8.4666666,0"
       orientation="-32,0"
       id="guide854"
       inkscape:locked="false" />
    <sodipodi:guide
       position="8.4666666,8.4666666"
       orientation="0,-32"
       id="guide856"
       inkscape:locked="false" />
    <sodipodi:guide
       position="0,8.4666814"
       orientation="32,0"
       id="guide858"
       inkscape:locked="false" />
  </sodipodi:namedview>
  <metadata
     id="metadata5">
    <rdf:RDF>
      <cc:Work
         rdf:about="">
        <dc:format>image/svg+xml</dc:format>
        <dc:type
           rdf:resource="http://purl.org/dc/dcmitype/StillImage" />
        <dc:title></dc:title>
      </cc:Work>
    </rdf:RDF>
  </metadata>
  <g
     inkscape:label="Layer 1"
     inkscape:groupmode="layer"
     id="layer1"
     transform="translate(0,-288.53334)">
    <path
       id="rect843"
       style="fill:#434343;stroke-width:0.999999"
       d="M 3.8886719,0 C 1.7341176,0 0,1.7341176 0,3.8886719 V 4.7890625 C 0.93994492,2.8179068 2.9509019,1.4394531 5.2636719,1.4394531 c 2.0545545,0 3.8665333,1.0903791 4.9042971,2.7148438 h 17.677734 v 7.6679691 l 3.734375,3.730468 A 1.628193,1.628193 0 0 1 32,16.275391 V 3.8886719 C 32,1.7341176 30.265882,0 28.111328,0 Z M 0,9.7519531 V 28.111328 C 0,30.265882 1.7341176,32 3.8886719,32 H 28.111328 C 30.265882,32 32,30.265882 32,28.111328 v -2.574219 a 1.628193,1.628193 0 0 1 -1.572266,1.191407 h -2.582031 v 1.117187 H 4.1542969 V 26.728516 H 1.6679688 a 1.628193,1.628193 0 0 1 -1.63085943,-1.63086 v -3.59375 A 1.628193,1.628193 0 0 1 0.51757812,20.351562 L 4.1542969,16.708984 V 12.986328 C 2.3213007,12.627426 0.78649078,11.397529 0,9.7519531 Z"
       transform="matrix(0.26458333,0,0,0.26458333,0,288.53334)" />
    <path
       id="path1124"
       d="m 1.3917589,289.34663 c -0.61287166,0 -1.10970166,0.49683 -1.10970166,1.10969 0,0.61289 0.49683,1.10971 1.10970166,1.10971 0.6128728,0 1.1097028,-0.49682 1.1097028,-1.10971 0,-0.61286 -0.49683,-1.10969 -1.1097028,-1.10969 z M 0.44058674,295.1734 H 8.0499698 v -2.21942 l -1.7342064,-1.73421 c -0.092856,-0.0929 -0.2434211,-0.0929 -0.3362986,0 l -2.6853593,2.68539 -1.1000907,-1.10009 c -0.092856,-0.0929 -0.2434213,-0.0929 -0.3363,0 l -1.41712806,1.41715 z"
       inkscape:connector-curvature="0"
       style="fill:#434343;fill-opacity:1;stroke-width:0.0198161"
       sodipodi:nodetypes="ssssscccccccccc" />
  </g>
</svg>
