<?xml version="1.0" encoding="UTF-8" standalone="no"?>
<svg
   xmlns:dc="http://purl.org/dc/elements/1.1/"
   xmlns:cc="http://creativecommons.org/ns#"
   xmlns:rdf="http://www.w3.org/1999/02/22-rdf-syntax-ns#"
   xmlns:svg="http://www.w3.org/2000/svg"
   xmlns="http://www.w3.org/2000/svg"
   xmlns:sodipodi="http://sodipodi.sourceforge.net/DTD/sodipodi-0.dtd"
   xmlns:inkscape="http://www.inkscape.org/namespaces/inkscape"
   width="32"
   height="32"
   viewBox="0 0 8.4666666 8.4666666"
   version="1.1"
   id="svg8"
   inkscape:version="1.0.2-2 (e86c870879, 2021-01-15)"
   sodipodi:docname="layer_group.svg"
   inkscape:export-filename="D:\DEV_SRC\RxOT\DuAEF_Dugr\icons/w16\w16_layer_group.png"
   inkscape:export-xdpi="48"
   inkscape:export-ydpi="48">
  <defs
     id="defs2" />
  <sodipodi:namedview
     id="base"
     pagecolor="#ffffff"
     bordercolor="#666666"
     borderopacity="1.0"
     inkscape:pageopacity="0.0"
     inkscape:pageshadow="2"
     inkscape:zoom="11.313708"
     inkscape:cx="18.047711"
     inkscape:cy="17.57513"
     inkscape:document-units="mm"
     inkscape:current-layer="svg8"
     showgrid="false"
     units="px"
     inkscape:window-width="3440"
     inkscape:window-height="1417"
     inkscape:window-x="1915"
     inkscape:window-y="-8"
     inkscape:window-maximized="1"
     inkscape:document-rotation="0">
    <sodipodi:guide
       position="8.4666666,0"
       orientation="-32,0"
       id="guide854"
       inkscape:locked="false" />
    <sodipodi:guide
       position="8.4666666,8.4666666"
       orientation="0,-32"
       id="guide856"
       inkscape:locked="false" />
    <sodipodi:guide
       position="0,8.4666814"
       orientation="32,0"
       id="guide858"
       inkscape:locked="false" />
  </sodipodi:namedview>
  <metadata
     id="metadata5">
    <rdf:RDF>
      <cc:Work
         rdf:about="">
        <dc:format>image/svg+xml</dc:format>
        <dc:type
           rdf:resource="http://purl.org/dc/dcmitype/StillImage" />
        <dc:title />
      </cc:Work>
    </rdf:RDF>
  </metadata>
  <path
     id="path1010"
     style="fill:#434343;fill-opacity:1;stroke-width:0.0226354"
     d="m 4.2200856,0.53070194 c 0.057787,-0.002055 0.1152524,0.009437 0.1678029,0.0335605 L 7.7589546,2.0930327 c 0.2395378,0.1086963 0.2395378,0.4706636 0,0.5793606 L 4.3870053,4.2020465 c -0.098421,0.044724 -0.2098066,0.044724 -0.3082272,0 L 0.7077121,2.6723933 c -0.23953804,-0.108697 -0.23953804,-0.4706643 0,-0.5793606 L 4.0796613,0.5642625 C 4.1238163,0.5439783 4.1715303,0.5325754 4.2200856,0.53070194 Z M 1.5484915,3.5696957 3.888013,4.6295017 c 0.1095656,0.049642 0.2256242,0.075069 0.3453203,0.075069 0.1196968,0 0.2358988,-0.025427 0.3453203,-0.075069 L 6.918175,3.5696957 7.7589546,3.9503428 c 0.2395378,0.1085514 0.2395378,0.4708088 0,0.5793605 L 4.3870053,6.0575902 c -0.098421,0.044579 -0.2098066,0.044579 -0.3082272,0 L 0.7077121,4.5297033 c -0.23953804,-0.1085517 -0.23953804,-0.4708091 0,-0.5793605 z m -0.00265,1.8511276 2.3421709,1.0615723 c 0.1095657,0.049651 0.2256242,0.07507 0.3453203,0.07507 0.1196969,0 0.2358988,-0.025427 0.3453203,-0.07507 l 2.343054,-1.0615723 0.837247,0.379764 c 0.2395379,0.1085517 0.2395379,0.469926 0,0.578477 L 4.3870039,7.9078347 c -0.098421,0.044575 -0.2098067,0.044575 -0.3082272,0 L 0.7077121,6.3790643 c -0.23953804,-0.1085507 -0.23953804,-0.4699256 0,-0.578477 z"
     sodipodi:nodetypes="ccccccccccccscccccccccccsccccccccc" />
</svg>
