<?xml version="1.0" encoding="UTF-8" standalone="no"?>
<svg
   xmlns:dc="http://purl.org/dc/elements/1.1/"
   xmlns:cc="http://creativecommons.org/ns#"
   xmlns:rdf="http://www.w3.org/1999/02/22-rdf-syntax-ns#"
   xmlns:svg="http://www.w3.org/2000/svg"
   xmlns="http://www.w3.org/2000/svg"
   xmlns:sodipodi="http://sodipodi.sourceforge.net/DTD/sodipodi-0.dtd"
   xmlns:inkscape="http://www.inkscape.org/namespaces/inkscape"
   width="32"
   height="32"
   viewBox="0 0 8.4666666 8.4666666"
   version="1.1"
   id="svg8"
   inkscape:version="1.0.2-2 (e86c870879, 2021-01-15)"
   sodipodi:docname="add_layer.svg"
   inkscape:export-filename="D:\DEV_SRC\RxOT\DuAEF_Dugr\icons\w12\w12_add_layer.png"
   inkscape:export-xdpi="36"
   inkscape:export-ydpi="36">
  <defs
     id="defs2" />
  <sodipodi:namedview
     id="base"
     pagecolor="#ffffff"
     bordercolor="#666666"
     borderopacity="1.0"
     inkscape:pageopacity="0.0"
     inkscape:pageshadow="2"
     inkscape:zoom="16"
     inkscape:cx="25.356317"
     inkscape:cy="15.934091"
     inkscape:document-units="mm"
     inkscape:current-layer="layer1"
     showgrid="false"
     units="px"
     inkscape:window-width="3440"
     inkscape:window-height="1417"
     inkscape:window-x="1915"
     inkscape:window-y="-8"
     inkscape:window-maximized="1"
     inkscape:document-rotation="0">
    <sodipodi:guide
       position="8.4666666,0"
       orientation="-32,0"
       id="guide854"
       inkscape:locked="false" />
    <sodipodi:guide
       position="8.4666666,8.4666666"
       orientation="0,-32"
       id="guide856"
       inkscape:locked="false" />
    <sodipodi:guide
       position="0,8.4666814"
       orientation="32,0"
       id="guide858"
       inkscape:locked="false" />
  </sodipodi:namedview>
  <metadata
     id="metadata5">
    <rdf:RDF>
      <cc:Work
         rdf:about="">
        <dc:format>image/svg+xml</dc:format>
        <dc:type
           rdf:resource="http://purl.org/dc/dcmitype/StillImage" />
        <dc:title />
      </cc:Work>
    </rdf:RDF>
  </metadata>
  <g
     inkscape:label="Layer 1"
     inkscape:groupmode="layer"
     id="layer1"
     transform="translate(0,-288.53334)">
    <path
       id="path1010"
       style="display:inline;fill:#b1b1b1;fill-opacity:1;stroke-width:0.0884149"
       d="m 20.96875,0.00195313 c -0.806235,0 -1.458984,0.65468868 -1.458984,1.46093747 v 6.5703125 h -6.570313 c -0.806236,0 -1.460937,0.6527356 -1.460937,1.4589844 v 1.4609375 c 0,0.806173 0.654701,1.460937 1.460937,1.460937 h 6.570313 v 6.570313 c 0,0.806287 0.652749,1.458984 1.458984,1.458984 h 1.460938 c 0.806234,0 1.458984,-0.652697 1.458984,-1.458984 v -6.570313 h 6.570312 c 0.806236,0 1.460938,-0.654764 1.460938,-1.460937 V 9.4921875 c 0,-0.8062488 -0.654702,-1.4589844 -1.460938,-1.4589844 H 23.888672 V 1.4628906 c 0,-0.80624879 -0.65275,-1.46093747 -1.458984,-1.46093747 z M 14.417969,17.527344 c -0.189659,0.0072 -0.376357,0.05149 -0.548828,0.130859 L 0.69726562,23.630859 c -0.93564413,0.424555 -0.93564413,1.837127 0,2.261719 l 13.16796838,5.97461 c 0.384435,0.174613 0.818689,0.174613 1.203125,0 l 13.171875,-5.97461 c 0.935644,-0.424592 0.935644,-1.837164 0,-2.261719 L 25.65625,22.458984 c -0.860363,0.79929 -1.996673,1.302735 -3.230469,1.302735 h -1.453125 c -2.586417,0 -4.783203,-2.168651 -4.783203,-4.775391 v -0.822266 l -1.117187,-0.505859 c -0.205264,-0.09713 -0.42858,-0.138418 -0.654297,-0.130859 z"
       transform="matrix(0.26458333,0,0,0.26458333,0,288.53334)" />
  </g>
</svg>
