<?xml version="1.0" encoding="UTF-8" standalone="no"?>
<svg
   width="32"
   height="32"
   viewBox="0 0 8.4666666 8.4666666"
   version="1.1"
   id="svg8"
   inkscape:version="1.2.2 (732a01da63, 2022-12-09)"
   sodipodi:docname="compositions.svg"
   inkscape:export-filename="w16\w16_compositions.png"
   inkscape:export-xdpi="48"
   inkscape:export-ydpi="48"
   xmlns:inkscape="http://www.inkscape.org/namespaces/inkscape"
   xmlns:sodipodi="http://sodipodi.sourceforge.net/DTD/sodipodi-0.dtd"
   xmlns="http://www.w3.org/2000/svg"
   xmlns:svg="http://www.w3.org/2000/svg"
   xmlns:rdf="http://www.w3.org/1999/02/22-rdf-syntax-ns#"
   xmlns:cc="http://creativecommons.org/ns#"
   xmlns:dc="http://purl.org/dc/elements/1.1/">
  <defs
     id="defs2">
    <style
       id="style1399">.cls-1{fill:#e3e3e3;}</style>
    <style
       id="style1399-4">.cls-1{fill:#e3e3e3;}</style>
    <style
       id="style1399-8">.cls-1{fill:#e3e3e3;}</style>
    <style
       id="style1399-4-5">.cls-1{fill:#e3e3e3;}</style>
  </defs>
  <sodipodi:namedview
     id="base"
     pagecolor="#ffffff"
     bordercolor="#666666"
     borderopacity="1.0"
     inkscape:pageopacity="0.0"
     inkscape:pageshadow="2"
     inkscape:zoom="16"
     inkscape:cx="28.5"
     inkscape:cy="21"
     inkscape:document-units="mm"
     inkscape:current-layer="svg8"
     showgrid="false"
     units="px"
     inkscape:window-width="3440"
     inkscape:window-height="1369"
     inkscape:window-x="1912"
     inkscape:window-y="-8"
     inkscape:window-maximized="1"
     inkscape:document-rotation="0"
     inkscape:snap-bbox="true"
     inkscape:snap-nodes="false"
     inkscape:bbox-paths="true"
     inkscape:bbox-nodes="true"
     inkscape:snap-bbox-edge-midpoints="true"
     inkscape:snap-bbox-midpoints="true"
     inkscape:pagecheckerboard="0"
     inkscape:showpageshadow="0"
     inkscape:deskcolor="#d1d1d1" />
  <metadata
     id="metadata5">
    <rdf:RDF>
      <cc:Work
         rdf:about="">
        <dc:format>image/svg+xml</dc:format>
        <dc:type
           rdf:resource="http://purl.org/dc/dcmitype/StillImage" />
      </cc:Work>
    </rdf:RDF>
  </metadata>
  <path
     id="path885-3"
     style="fill:#b1b1b1;fill-opacity:1;stroke-width:0.0139395"
     d="M 5.7758748 0.78909912 L 2.210201 0.79013265 C 1.9568612 0.79021025 1.8128428 1.1075033 1.9797241 1.298112 L 4.3289347 3.9806356 C 4.3974774 4.0590081 4.4950864 4.1031965 4.5992025 4.1031087 L 8.1643595 4.102592 C 8.4176997 4.1025143 8.5617173 3.7847055 8.3948364 3.5940959 L 6.0461426 0.91157227 C 6.0121225 0.872501 5.9703002 0.84204659 5.9241862 0.82113851 C 5.8780709 0.80022923 5.8276818 0.78894231 5.7758748 0.78909912 z M 5.6172282 1.6381429 C 5.7322278 1.6383956 5.8756674 1.6854672 6.0141032 1.7611328 C 6.1525395 1.8367978 6.2857939 1.9409943 6.3820394 2.0562052 C 6.5745323 2.2866275 6.5443447 2.4732181 6.3143433 2.4727173 C 6.0843423 2.4722158 5.742025 2.285077 5.5495321 2.0546549 C 5.35704 1.8242332 5.3872263 1.6376413 5.6172282 1.6381429 z M 4.2116292 2.0887614 C 4.234461 2.0889135 4.2648799 2.0976334 4.2968953 2.1151164 L 6.1479451 3.1269409 L 6.2151245 2.7140462 C 6.2208071 2.6792116 6.2777011 2.679597 6.3417318 2.714563 L 7.3184163 3.2483805 L 7.6171061 3.6059814 L 4.7614665 3.5997803 L 4.0643514 2.7657227 L 4.1702881 2.1145996 C 4.1731294 2.0971823 4.1887974 2.0886093 4.2116292 2.0887614 z M 1.1404989 2.300118 C 0.86294202 2.2991129 0.70402759 2.6462754 0.88625081 2.8556396 L 3.4509521 5.8027466 C 3.5258331 5.8887465 3.633027 5.9377033 3.7470581 5.9381388 L 7.6537964 5.9520915 C 7.9313527 5.9530974 8.0902671 5.6054176 7.9080444 5.3960531 L 7.270874 4.6643148 L 4.556311 4.6544963 C 4.4294986 4.6540925 4.3068677 4.6274752 4.1919922 4.5749146 C 4.0771168 4.522354 3.9766549 4.4469117 3.8933024 4.3511556 L 2.111499 2.3032186 L 1.1404989 2.300118 z M 0.33227946 4.0669352 C 0.054722597 4.06593 -0.10419182 4.4136093 0.078031413 4.6229736 L 2.6427327 7.5700806 C 2.7176137 7.6560805 2.8242909 7.7050374 2.9383219 7.7054728 L 6.8450602 7.7189087 C 7.1226164 7.7199187 7.2815309 7.3727516 7.0993083 7.163387 L 6.4621379 6.431132 L 3.7475749 6.4218302 C 3.6207623 6.4214265 3.4981315 6.3942924 3.383256 6.3417318 C 3.2683807 6.2891711 3.1679187 6.2142458 3.0845662 6.1184896 L 1.3027629 4.0705526 L 0.33227946 4.0669352 z " />
</svg>
