<?xml version="1.0" encoding="UTF-8" standalone="no"?>
<svg
   xmlns:dc="http://purl.org/dc/elements/1.1/"
   xmlns:cc="http://creativecommons.org/ns#"
   xmlns:rdf="http://www.w3.org/1999/02/22-rdf-syntax-ns#"
   xmlns:svg="http://www.w3.org/2000/svg"
   xmlns="http://www.w3.org/2000/svg"
   xmlns:sodipodi="http://sodipodi.sourceforge.net/DTD/sodipodi-0.dtd"
   xmlns:inkscape="http://www.inkscape.org/namespaces/inkscape"
   width="32"
   height="32"
   viewBox="0 0 8.4666666 8.4666666"
   version="1.1"
   id="svg8"
   inkscape:version="1.0.2-2 (e86c870879, 2021-01-15)"
   sodipodi:docname="frame_above.svg"
   inkscape:export-filename="D:\DEV_SRC\RxOT\DuAEF_Dugr\icons\w16\w16_frame_below.png"
   inkscape:export-xdpi="48.000004"
   inkscape:export-ydpi="48.000004">
  <defs
     id="defs2">
    <marker
       style="overflow:visible"
       id="Arrow1Lstart"
       refX="0.0"
       refY="0.0"
       orient="auto"
       inkscape:stockid="Arrow1Lstart"
       inkscape:isstock="true">
      <path
         transform="scale(0.8) translate(12.5,0)"
         style="fill-rule:evenodd;stroke:#000000;stroke-width:1.0pt"
         d="M 0.0,0.0 L 5.0,-5.0 L -12.5,0.0 L 5.0,5.0 L 0.0,0.0 z "
         id="path850" />
    </marker>
  </defs>
  <sodipodi:namedview
     id="base"
     pagecolor="#ffffff"
     bordercolor="#666666"
     borderopacity="1.0"
     inkscape:pageopacity="0.0"
     inkscape:pageshadow="2"
     inkscape:zoom="7.9999999"
     inkscape:cx="-72.668896"
     inkscape:cy="20.677717"
     inkscape:document-units="mm"
     inkscape:current-layer="layer1"
     showgrid="false"
     units="px"
     inkscape:window-width="3440"
     inkscape:window-height="1417"
     inkscape:window-x="1915"
     inkscape:window-y="-8"
     inkscape:window-maximized="1"
     inkscape:document-rotation="0">
    <sodipodi:guide
       position="8.4666666,0"
       orientation="-32,0"
       id="guide854"
       inkscape:locked="false" />
    <sodipodi:guide
       position="8.4666666,8.4666666"
       orientation="0,-32"
       id="guide856"
       inkscape:locked="false" />
    <sodipodi:guide
       position="0,8.4666814"
       orientation="32,0"
       id="guide858"
       inkscape:locked="false" />
  </sodipodi:namedview>
  <metadata
     id="metadata5">
    <rdf:RDF>
      <cc:Work
         rdf:about="">
        <dc:format>image/svg+xml</dc:format>
        <dc:type
           rdf:resource="http://purl.org/dc/dcmitype/StillImage" />
        <dc:title></dc:title>
      </cc:Work>
    </rdf:RDF>
  </metadata>
  <g
     inkscape:label="Layer 1"
     inkscape:groupmode="layer"
     id="layer1"
     transform="translate(0,-288.53334)">
    <path
       id="path1124"
       style="fill:#b1b1b1;fill-opacity:1;stroke-width:0.0748955"
       d="m 6.5332031,6.5332031 v 4.7109379 c 1.6896408,-0.541538 2.921875,-2.1070481 2.921875,-3.9765629 0,-0.2514112 -0.031816,-0.4951367 -0.074219,-0.734375 z M 23.234375,9.890625 c -0.230014,0 -0.459249,0.088113 -0.634766,0.263672 L 12.449219,20.302734 8.2929688,16.144531 c -0.3509519,-0.351118 -0.9204468,-0.351118 -1.2714844,0 l -0.4882813,0.488281 v 8.462891 H 25.466797 V 11.75 L 23.871094,10.154297 C 23.695618,9.9787378 23.464389,9.890625 23.234375,9.890625 Z"
       transform="matrix(0.26458333,0,0,0.26458333,0,288.53334)" />
    <path
       id="path1129"
       style="fill:#b1b1b1;stroke-width:0.999999"
       d="M 3.8886719,0 C 1.7341176,0 0,1.7341176 0,3.8886719 V 28.111328 C 0,30.265882 1.7341176,32 3.8886719,32 H 28.111328 C 30.265882,32 32,30.265882 32,28.111328 V 3.8886719 C 32,1.7341176 30.265882,0 28.111328,0 Z m 0.265625,4.1542969 H 27.845703 V 27.845703 H 4.1542969 Z"
       transform="matrix(0.26458333,0,0,0.26458333,0,288.53334)" />
  </g>
</svg>
