<?xml version="1.0" encoding="UTF-8" standalone="no"?>
<svg
   xmlns:dc="http://purl.org/dc/elements/1.1/"
   xmlns:cc="http://creativecommons.org/ns#"
   xmlns:rdf="http://www.w3.org/1999/02/22-rdf-syntax-ns#"
   xmlns:svg="http://www.w3.org/2000/svg"
   xmlns="http://www.w3.org/2000/svg"
   xmlns:sodipodi="http://sodipodi.sourceforge.net/DTD/sodipodi-0.dtd"
   xmlns:inkscape="http://www.inkscape.org/namespaces/inkscape"
   width="32"
   height="32"
   viewBox="0 0 8.4666666 8.4666666"
   version="1.1"
   id="svg8"
   inkscape:version="1.0.2-2 (e86c870879, 2021-01-15)"
   sodipodi:docname="layer_info.svg"
   inkscape:export-filename="D:\DEV_SRC\RxOT\DuAEF_Dugr\icons/w12\w12_layer_info.png"
   inkscape:export-xdpi="36.000004"
   inkscape:export-ydpi="36.000004">
  <defs
     id="defs2" />
  <sodipodi:namedview
     id="base"
     pagecolor="#ffffff"
     bordercolor="#666666"
     borderopacity="1.0"
     inkscape:pageopacity="0.0"
     inkscape:pageshadow="2"
     inkscape:zoom="11.313708"
     inkscape:cx="18.047711"
     inkscape:cy="17.57513"
     inkscape:document-units="mm"
     inkscape:current-layer="svg8"
     showgrid="false"
     units="px"
     inkscape:window-width="3440"
     inkscape:window-height="1417"
     inkscape:window-x="1915"
     inkscape:window-y="-8"
     inkscape:window-maximized="1"
     inkscape:document-rotation="0">
    <sodipodi:guide
       position="8.4666666,0"
       orientation="-32,0"
       id="guide854"
       inkscape:locked="false" />
    <sodipodi:guide
       position="6.0626,8.4666666"
       orientation="0,-32"
       id="guide856"
       inkscape:locked="false" />
    <sodipodi:guide
       position="0,8.4666814"
       orientation="32,0"
       id="guide858"
       inkscape:locked="false" />
  </sodipodi:namedview>
  <metadata
     id="metadata5">
    <rdf:RDF>
      <cc:Work
         rdf:about="">
        <dc:format>image/svg+xml</dc:format>
        <dc:type
           rdf:resource="http://purl.org/dc/dcmitype/StillImage" />
        <dc:title />
      </cc:Work>
    </rdf:RDF>
  </metadata>
  <path
     id="path1010"
     style="fill:#b1b1b1;fill-opacity:1;stroke-width:0.0855511"
     d="M 21.675781 0 C 18.085257 0 15.759422 1.4721488 13.933594 4.0957031 C 13.602382 4.5716311 13.705948 5.2238898 14.167969 5.5742188 L 16.107422 7.0449219 C 16.574034 7.3987272 17.238205 7.3153041 17.603516 6.8574219 C 18.730303 5.4458069 19.566111 4.6347656 21.326172 4.6347656 C 22.71004 4.6347656 24.421875 5.525247 24.421875 6.8671875 C 24.421875 7.8816528 23.585164 8.4018755 22.21875 9.1679688 C 20.625309 10.061318 18.515625 11.173778 18.515625 13.955078 L 18.515625 14.394531 C 18.515625 14.990786 18.99945 15.474609 19.595703 15.474609 L 22.855469 15.474609 C 23.451722 15.474609 23.935547 14.990786 23.935547 14.394531 L 23.935547 14.134766 C 23.935547 12.206788 29.570312 12.127401 29.570312 6.9101562 C 29.570359 2.9811573 25.494011 5.9211895e-16 21.675781 0 z M 21.224609 16.798828 C 19.506426 16.798828 18.109375 18.197822 18.109375 19.916016 C 18.109375 21.634155 19.506426 23.03125 21.224609 23.03125 C 22.942792 23.03125 24.341797 21.634182 24.341797 19.916016 C 24.341797 18.197822 22.942792 16.798828 21.224609 16.798828 z M 15.242188 17.916016 C 15.058671 17.923097 14.879776 17.966305 14.712891 18.042969 L 1.9667969 23.820312 C 1.0614563 24.231133 1.0614563 25.598942 1.9667969 26.009766 L 14.708984 31.791016 C 15.080968 31.960051 15.501062 31.960051 15.873047 31.791016 L 28.617188 26.009766 C 29.522526 25.598942 29.522526 24.231133 28.617188 23.820312 L 26.888672 23.037109 C 25.774501 25.029363 23.641124 26.398438 21.226562 26.398438 C 17.685237 26.398438 14.744141 23.457287 14.744141 19.916016 C 14.744141 19.176045 15.004448 18.534369 15.339844 17.923828 C 15.307061 17.922685 15.275084 17.914849 15.242188 17.916016 z "
     transform="scale(0.26458333)" />
</svg>
