<?xml version="1.0" encoding="UTF-8" standalone="no"?>
<!-- Created with Inkscape (http://www.inkscape.org/) -->

<svg
   width="32"
   height="32"
   viewBox="0 0 8.4666666 8.4666666"
   version="1.1"
   id="svg8"
   inkscape:version="1.2.2 (732a01da63, 2022-12-09)"
   sodipodi:docname="precompositions.svg"
   inkscape:export-filename="w16\w16_precompositions.png"
   inkscape:export-xdpi="48"
   inkscape:export-ydpi="48"
   xml:space="preserve"
   xmlns:inkscape="http://www.inkscape.org/namespaces/inkscape"
   xmlns:sodipodi="http://sodipodi.sourceforge.net/DTD/sodipodi-0.dtd"
   xmlns="http://www.w3.org/2000/svg"
   xmlns:svg="http://www.w3.org/2000/svg"
   xmlns:rdf="http://www.w3.org/1999/02/22-rdf-syntax-ns#"
   xmlns:cc="http://creativecommons.org/ns#"
   xmlns:dc="http://purl.org/dc/elements/1.1/"><defs
     id="defs2"><style
       id="style1399">.cls-1{fill:#e3e3e3;}</style><style
       id="style1399-9">.cls-1{fill:#e3e3e3;}</style><style
       id="style1399-4">.cls-1{fill:#e3e3e3;}</style><style
       id="style1399-8">.cls-1{fill:#e3e3e3;}</style><style
       id="style1399-4-5">.cls-1{fill:#e3e3e3;}</style></defs><sodipodi:namedview
     id="base"
     pagecolor="#ffffff"
     bordercolor="#666666"
     borderopacity="1.0"
     inkscape:pageopacity="0.0"
     inkscape:pageshadow="2"
     inkscape:zoom="8.0000004"
     inkscape:cx="3.4374998"
     inkscape:cy="3.8749998"
     inkscape:document-units="mm"
     inkscape:current-layer="svg8"
     showgrid="false"
     units="px"
     inkscape:window-width="3440"
     inkscape:window-height="1369"
     inkscape:window-x="1912"
     inkscape:window-y="-8"
     inkscape:window-maximized="1"
     inkscape:snap-bbox="true"
     inkscape:bbox-nodes="true"
     inkscape:bbox-paths="true"
     inkscape:snap-bbox-edge-midpoints="true"
     inkscape:snap-bbox-midpoints="true"
     inkscape:snap-nodes="false"
     inkscape:pagecheckerboard="1"
     inkscape:showpageshadow="0"
     inkscape:deskcolor="#d1d1d1" /><metadata
     id="metadata5"><rdf:RDF><cc:Work
         rdf:about=""><dc:format>image/svg+xml</dc:format><dc:type
           rdf:resource="http://purl.org/dc/dcmitype/StillImage" /></cc:Work></rdf:RDF></metadata><path
     id="path1222"
     style="fill:#b1b1b1;fill-opacity:1;stroke-width:0.0625"
     d="M 1.5 3.9433594 C 0.66875367 3.9433594 -1.4802959e-16 4.6121103 0 5.4433594 L 0 26.44336 C 0 27.27461 0.66875367 27.94336 1.5 27.94336 L 2 27.94336 L 2 26.69336 C 2 26.280861 2.3375099 25.94336 2.75 25.94336 L 5.2500001 25.94336 C 5.6625015 25.94336 6.0000001 26.280862 6.0000001 26.69336 L 6.0000001 27.94336 L 26 27.94336 L 26 26.69336 C 26 26.280861 26.337508 25.94336 26.75 25.94336 L 29.25 25.94336 C 29.662498 25.94336 30 26.280862 30 26.69336 L 30 27.94336 L 30.5 27.94336 C 31.331247 27.94336 32 27.27461 32 26.44336 L 32 5.4433594 C 32 4.6121103 31.331247 3.9433594 30.5 3.9433594 L 30 3.9433594 L 30 5.1933594 C 30 5.6058593 29.66249 5.9433594 29.25 5.9433594 L 26.75 5.9433594 C 26.337503 5.9433594 26 5.6058593 26 5.1933594 L 26 3.9433594 L 6.0000001 3.9433594 L 6.0000001 5.1933594 C 6.0000001 5.6058593 5.6624932 5.9433594 5.2500001 5.9433594 L 2.75 5.9433594 C 2.3375024 5.9433594 2 5.6058593 2 5.1933594 L 2 3.9433594 L 1.5 3.9433594 z M 2.75 7.9433595 L 5.2500001 7.9433595 C 5.6625015 7.9433595 6.0000001 8.28086 6.0000001 8.6933595 L 6.0000001 11.19336 C 6.0000001 11.60586 5.6624932 11.94336 5.2500001 11.94336 L 2.75 11.94336 C 2.3375024 11.94336 2 11.605859 2 11.19336 L 2 8.6933595 C 2 8.2808596 2.3375099 7.9433595 2.75 7.9433595 z M 26.75 7.9433595 L 29.25 7.9433595 C 29.662498 7.9433595 30 8.28086 30 8.6933595 L 30 11.19336 C 30 11.60586 29.66249 11.94336 29.25 11.94336 L 26.75 11.94336 C 26.337503 11.94336 26 11.605859 26 11.19336 L 26 8.6933595 C 26 8.2808596 26.337508 7.9433595 26.75 7.9433595 z M 19.478516 8.1269532 C 19.595358 8.126598 19.710445 8.151937 19.814453 8.1992189 C 19.918455 8.2463873 20.011167 8.3161585 20.087891 8.404297 L 25.386719 14.453125 C 25.763095 14.883016 25.438559 15.601385 24.867188 15.601563 L 16.826172 15.601563 C 16.591353 15.601759 16.36943 15.50294 16.214844 15.326172 L 10.917969 9.2753907 C 10.541593 8.8455039 10.866131 8.1290802 11.4375 8.1289064 L 19.478516 8.1269532 z M 9.0253907 11.535156 L 11.214844 11.542969 L 15.234375 16.16211 C 15.422364 16.378075 15.647166 16.547471 15.90625 16.666016 C 16.165335 16.784557 16.442509 16.844792 16.728516 16.845703 L 22.851563 16.867188 L 24.289063 18.517578 C 24.700038 18.989766 24.34083 19.775705 23.714844 19.773438 L 14.904297 19.740235 C 14.647117 19.739252 14.405213 19.629512 14.236328 19.435547 L 8.4531251 12.789063 C 8.0421484 12.316872 8.3994037 11.532889 9.0253907 11.535156 z M 2.75 13.94336 L 5.2500001 13.94336 C 5.6625015 13.94336 6.0000001 14.280861 6.0000001 14.69336 L 6.0000001 17.19336 C 6.0000001 17.605859 5.6624932 17.94336 5.2500001 17.94336 L 2.75 17.94336 C 2.3375024 17.94336 2 17.605859 2 17.19336 L 2 14.69336 C 2 14.28086 2.3375099 13.94336 2.75 13.94336 z M 26.75 13.94336 L 29.25 13.94336 C 29.662498 13.94336 30 14.280861 30 14.69336 L 30 17.19336 C 30 17.605859 29.66249 17.94336 29.25 17.94336 L 26.75 17.94336 C 26.337503 17.94336 26 17.605859 26 17.19336 L 26 14.69336 C 26 14.28086 26.337508 13.94336 26.75 13.94336 z M 7.201172 15.521485 L 9.3906251 15.529297 L 13.410156 20.146485 C 13.598145 20.362462 13.824902 20.531865 14.083985 20.650391 C 14.343069 20.768955 14.618289 20.831121 14.904297 20.832032 L 21.027344 20.853516 L 22.464844 22.503907 C 22.87582 22.976098 22.516612 23.762034 21.890625 23.759766 L 13.080078 23.726563 C 12.822898 23.72558 12.580994 23.613887 12.41211 23.419922 L 6.6289063 16.773438 C 6.2179292 16.30125 6.5751842 15.519236 7.201172 15.521485 z M 2.75 19.94336 L 5.2500001 19.94336 C 5.6625015 19.94336 6.0000001 20.280862 6.0000001 20.69336 L 6.0000001 23.19336 C 6.0000001 23.605859 5.6624932 23.94336 5.2500001 23.94336 L 2.75 23.94336 C 2.3375024 23.94336 2 23.605858 2 23.19336 L 2 20.69336 C 2 20.280861 2.3375099 19.94336 2.75 19.94336 z M 26.75 19.94336 L 29.25 19.94336 C 29.662498 19.94336 30 20.280862 30 20.69336 L 30 23.19336 C 30 23.605859 29.66249 23.94336 29.25 23.94336 L 26.75 23.94336 C 26.337503 23.94336 26 23.605858 26 23.19336 L 26 20.69336 C 26 20.280861 26.337508 19.94336 26.75 19.94336 z "
     transform="scale(0.26458333)" /></svg>
