<?xml version="1.0" encoding="UTF-8" standalone="no"?>
<!-- Created with Inkscape (http://www.inkscape.org/) -->

<svg
   width="32"
   height="32"
   viewBox="0 0 8.4666666 8.4666666"
   version="1.1"
   id="svg8"
   inkscape:version="1.1.1 (3bf5ae0d25, 2021-09-20)"
   sodipodi:docname="and_sl.svg"
   inkscape:export-filename="D:\RxLab\src\RxOT\After-Effects\Duik\DuGR\icons\w16\w16_and.png"
   inkscape:export-xdpi="48"
   inkscape:export-ydpi="48"
   xmlns:inkscape="http://www.inkscape.org/namespaces/inkscape"
   xmlns:sodipodi="http://sodipodi.sourceforge.net/DTD/sodipodi-0.dtd"
   xmlns="http://www.w3.org/2000/svg"
   xmlns:svg="http://www.w3.org/2000/svg"
   xmlns:rdf="http://www.w3.org/1999/02/22-rdf-syntax-ns#"
   xmlns:cc="http://creativecommons.org/ns#"
   xmlns:dc="http://purl.org/dc/elements/1.1/">
  <defs
     id="defs2">
    <style
       id="style1399">.cls-1{fill:#e3e3e3;}</style>
  </defs>
  <sodipodi:namedview
     id="base"
     pagecolor="#ffffff"
     bordercolor="#666666"
     borderopacity="1.0"
     inkscape:pageopacity="0.0"
     inkscape:pageshadow="2"
     inkscape:zoom="8"
     inkscape:cx="-66.4375"
     inkscape:cy="4.1875"
     inkscape:document-units="mm"
     inkscape:current-layer="svg8"
     showgrid="false"
     units="px"
     inkscape:window-width="3440"
     inkscape:window-height="1369"
     inkscape:window-x="-8"
     inkscape:window-y="-8"
     inkscape:window-maximized="1"
     inkscape:pagecheckerboard="1"
     inkscape:snap-bbox="true"
     inkscape:bbox-paths="true"
     inkscape:bbox-nodes="true"
     inkscape:snap-bbox-edge-midpoints="true"
     inkscape:snap-nodes="false">
    <sodipodi:guide
       position="8.4666666,0"
       orientation="-32,0"
       id="guide854"
       inkscape:locked="false" />
    <sodipodi:guide
       position="8.4666666,8.4666666"
       orientation="0,-32"
       id="guide856"
       inkscape:locked="false" />
    <sodipodi:guide
       position="0,8.4666814"
       orientation="32,0"
       id="guide858"
       inkscape:locked="false" />
  </sodipodi:namedview>
  <metadata
     id="metadata5">
    <rdf:RDF>
      <cc:Work
         rdf:about="">
        <dc:format>image/svg+xml</dc:format>
        <dc:type
           rdf:resource="http://purl.org/dc/dcmitype/StillImage" />
      </cc:Work>
    </rdf:RDF>
  </metadata>
  <g
     aria-label="&amp;"
     id="text1195"
     style="font-weight:bold;font-size:11.8134px;line-height:1.25;font-family:Ubuntu;-inkscape-font-specification:'Ubuntu, Bold';fill:#b1b1b1;stroke-width:0.295337;fill-opacity:1">
    <path
       id="path2798"
       style="stroke-width:1.11623;fill:#b1b1b1;fill-opacity:1"
       d="M 14.089844,0 C 11.321601,0 9.147913,0.71380783 7.5703125,2.1425781 5.992712,3.5415823 5.2050781,5.5505097 5.2050781,8.1699219 c 0,1.1906419 0.2821014,2.2926421 0.8476563,3.3046871 0.5655549,0.98228 1.2055367,1.904363 1.9199218,2.767579 -0.8036832,0.44649 -1.5781144,0.969132 -2.3222656,1.564453 -0.7143851,0.565555 -1.354367,1.233895 -1.9199218,2.007812 -0.5357889,0.744151 -0.9674954,1.592408 -1.2949219,2.544922 -0.3274265,0.922747 -0.4902344,1.950921 -0.4902344,3.082031 0,1.012046 0.1779637,2.038267 0.5351563,3.080078 0.3571925,1.012046 0.95366,1.934129 1.7871093,2.767578 0.8632154,0.803684 1.9935739,1.473977 3.3925781,2.009766 1.3990043,0.506023 3.1409858,0.759766 5.2246098,0.759766 1.964559,0 3.734899,-0.312413 5.3125,-0.9375 1.5776,-0.654853 2.961701,-1.459596 4.152343,-2.41211 0.416725,0.416725 0.833276,0.922258 1.25,1.517578 0.416725,0.565555 0.744294,1.042729 0.982422,1.429688 h 6.832031 c -0.654853,-1.27994 -1.44444,-2.544748 -2.367187,-3.794922 -0.892981,-1.27994 -1.815064,-2.455766 -2.767578,-3.527344 0.327427,-0.565555 0.624684,-1.190381 0.892578,-1.875 0.29766,-0.684619 0.551403,-1.370068 0.759766,-2.054687 0.238128,-0.684619 0.431248,-1.354913 0.580078,-2.009766 0.14883,-0.684619 0.252968,-1.309445 0.298142,-1.686061 0.04517,-0.376617 0.06481,-0.565741 0.06515,-0.755392 0,-1.544671 -1.252204,-2.796875 -2.796875,-2.796875 -1.486965,0.0011 -2.713138,1.165467 -2.782047,2.252569 -0.06891,1.087103 -0.23205,1.887826 -0.499203,2.808019 -0.238128,0.892981 -0.491871,1.637101 -0.759766,2.232422 l -5,-5 c 1.577601,-0.952514 2.87272,-2.12834 3.884766,-3.527344 1.041812,-1.428771 1.5625,-3.0514586 1.5625,-4.8671875 0,-0.9822796 -0.179917,-1.8911601 -0.537109,-2.7246094 C 21.590073,3.4668628 21.054229,2.7227433 20.339844,2.0976562 19.655225,1.4428032 18.793765,0.93727072 17.751953,0.58007812 16.710141,0.19311951 15.488848,0 14.089844,0 Z m -0.177735,4.7324219 c 1.041812,0 1.785932,0.2688986 2.232422,0.8046875 0.446491,0.5357888 0.667969,1.145459 0.667969,1.8300781 0,1.1906419 -0.340772,2.1581923 -1.025391,2.9023435 -0.684619,0.744151 -1.504517,1.384133 -2.457031,1.919922 C 12.615693,11.5346 12.036334,10.849151 11.589844,10.134766 11.143353,9.3906142 10.919922,8.6313391 10.919922,7.8574219 c 0,-0.9227475 0.253743,-1.666867 0.759766,-2.2324219 0.535788,-0.5953209 1.279908,-0.8925781 2.232421,-0.8925781 z m -2.322265,13.1269531 7.142578,7.189453 c -0.625087,0.535789 -1.41272,0.967496 -2.365234,1.294922 -0.922748,0.327427 -2.009592,0.490234 -3.259766,0.490234 -0.892982,0 -1.652257,-0.119294 -2.277344,-0.357422 C 10.204991,26.208668 9.6843028,25.881099 9.2675781,25.494141 8.8806185,25.077416 8.5985172,24.630554 8.4199219,24.154297 8.2413266,23.67804 8.1523438,23.217975 8.1523438,22.771484 c -1e-7,-0.654853 0.1041376,-1.236164 0.3125,-1.742187 0.2083623,-0.506023 0.4753078,-0.952885 0.8027343,-1.339844 0.3274265,-0.416725 0.6853068,-0.772652 1.0722659,-1.070312 0.416724,-0.297661 0.833275,-0.551404 1.25,-0.759766 z"
       transform="scale(0.26458333)"
       sodipodi:nodetypes="scscccccscccsccccccccccccccccccscccsssssccscscccsccsssccc" />
  </g>
</svg>
