<?xml version="1.0" encoding="UTF-8" standalone="no"?>
<!-- Created with Inkscape (http://www.inkscape.org/) -->

<svg
   width="32"
   height="32"
   viewBox="0 0 8.4666666 8.4666666"
   version="1.1"
   id="svg8"
   inkscape:version="1.1.1 (3bf5ae0d25, 2021-09-20)"
   sodipodi:docname="layer_type.svg"
   xmlns:inkscape="http://www.inkscape.org/namespaces/inkscape"
   xmlns:sodipodi="http://sodipodi.sourceforge.net/DTD/sodipodi-0.dtd"
   xmlns="http://www.w3.org/2000/svg"
   xmlns:svg="http://www.w3.org/2000/svg"
   xmlns:rdf="http://www.w3.org/1999/02/22-rdf-syntax-ns#"
   xmlns:cc="http://creativecommons.org/ns#"
   xmlns:dc="http://purl.org/dc/elements/1.1/">
  <defs
     id="defs2">
    <style
       id="style1399">.cls-1{fill:#e3e3e3;}</style>
    <style
       id="style1399-4">.cls-1{fill:#e3e3e3;}</style>
    <style
       id="style1399-8">.cls-1{fill:#e3e3e3;}</style>
    <style
       id="style1399-4-5">.cls-1{fill:#e3e3e3;}</style>
  </defs>
  <sodipodi:namedview
     id="base"
     pagecolor="#ffffff"
     bordercolor="#666666"
     borderopacity="1.0"
     inkscape:pageopacity="0.0"
     inkscape:pageshadow="2"
     inkscape:zoom="8"
     inkscape:cx="-23.3125"
     inkscape:cy="8.0625"
     inkscape:document-units="mm"
     inkscape:current-layer="svg8"
     showgrid="false"
     units="px"
     inkscape:window-width="3440"
     inkscape:window-height="1369"
     inkscape:window-x="-8"
     inkscape:window-y="-8"
     inkscape:window-maximized="1"
     inkscape:pagecheckerboard="0">
    <sodipodi:guide
       position="8.4666666,0"
       orientation="-32,0"
       id="guide854"
       inkscape:locked="false" />
    <sodipodi:guide
       position="9.9390855,8.4423761"
       orientation="0,-32"
       id="guide856"
       inkscape:locked="false" />
    <sodipodi:guide
       position="0,8.4666814"
       orientation="32,0"
       id="guide858"
       inkscape:locked="false" />
  </sodipodi:namedview>
  <metadata
     id="metadata5">
    <rdf:RDF>
      <cc:Work
         rdf:about="">
        <dc:format>image/svg+xml</dc:format>
        <dc:type
           rdf:resource="http://purl.org/dc/dcmitype/StillImage" />
      </cc:Work>
    </rdf:RDF>
  </metadata>
  <path
     style="fill:#b1b1b1;fill-opacity:1;stroke-width:0.06239139"
     d="M 15.982422 7.5136719 C 15.75579 7.5136719 15.529252 7.5618101 15.318359 7.6582031 L 0.78515625 14.25 C -0.24742164 14.71856 -0.24742164 16.28144 0.78515625 16.75 L 15.318359 23.341797 C 15.74262 23.534591 16.222223 23.534591 16.646484 23.341797 L 31.179688 16.75 C 32.212266 16.28144 32.212266 14.720512 31.179688 14.251953 L 16.646484 7.6582031 C 16.435592 7.5618101 16.209054 7.5136719 15.982422 7.5136719 z M 13.878906 11.179688 C 14.583081 11.127112 15.253402 11.200578 15.722656 11.412109 C 16.661167 11.835172 16.441034 12.650857 15.230469 13.234375 C 14.019902 13.817894 12.278354 13.948454 11.339844 13.525391 C 10.401334 13.102328 10.621464 12.286644 11.832031 11.703125 C 12.437314 11.411366 13.174731 11.232263 13.878906 11.179688 z M 10.78125 14.460938 C 11.106895 14.436639 11.338095 14.538895 11.296875 14.691406 L 10.808594 16.5 L 20.224609 15.796875 C 20.550253 15.772576 20.781454 15.874832 20.740234 16.027344 L 19.96875 18.876953 L 15.585938 20.990234 L 3.9335938 15.736328 L 5.8125 14.832031 L 10.78125 14.460938 z "
     transform="scale(0.26458333)"
     id="path885"
     inkscape:export-filename="D:\RxLab\src\RxOT\After-Effects\Duik\DuGR\icons\w16\w16_layer_type.png"
     inkscape:export-xdpi="48"
     inkscape:export-ydpi="48" />
</svg>
