<?xml version="1.0" encoding="UTF-8" standalone="no"?>
<svg
   xmlns:dc="http://purl.org/dc/elements/1.1/"
   xmlns:cc="http://creativecommons.org/ns#"
   xmlns:rdf="http://www.w3.org/1999/02/22-rdf-syntax-ns#"
   xmlns:svg="http://www.w3.org/2000/svg"
   xmlns="http://www.w3.org/2000/svg"
   xmlns:sodipodi="http://sodipodi.sourceforge.net/DTD/sodipodi-0.dtd"
   xmlns:inkscape="http://www.inkscape.org/namespaces/inkscape"
   width="32"
   height="32"
   viewBox="0 0 8.4666666 8.4666666"
   version="1.1"
   id="svg8"
   inkscape:version="1.0.2-2 (e86c870879, 2021-01-15)"
   sodipodi:docname="no_tag.svg"
   inkscape:export-filename="D:\DEV_SRC\RxOT\DuAEF_Dugr\icons\w16/w16_no_tag.png"
   inkscape:export-xdpi="48"
   inkscape:export-ydpi="48">
  <defs
     id="defs2">
    <style
       id="style1399">.cls-1{fill:#e3e3e3;}</style>
    <style
       id="style1399-4">.cls-1{fill:#e3e3e3;}</style>
    <style
       id="style1399-8">.cls-1{fill:#e3e3e3;}</style>
    <style
       id="style1399-4-5">.cls-1{fill:#e3e3e3;}</style>
    <style
       id="style1399-0">.cls-1{fill:#e3e3e3;}</style>
    <style
       id="style854">.cls-1{fill:#e3e3e3;}</style>
    <style
       id="style1399-84">.cls-1{fill:#e3e3e3;}</style>
    <style
       id="style1399-4-8">.cls-1{fill:#e3e3e3;}</style>
    <style
       id="style1399-8-10">.cls-1{fill:#e3e3e3;}</style>
    <style
       id="style1399-4-5-3">.cls-1{fill:#e3e3e3;}</style>
    <style
       id="style1399-0-0">.cls-1{fill:#e3e3e3;}</style>
    <style
       id="style1399-5">.cls-1{fill:#e3e3e3;}</style>
    <style
       id="style1399-4-6">.cls-1{fill:#e3e3e3;}</style>
    <style
       id="style1399-8-1">.cls-1{fill:#e3e3e3;}</style>
    <style
       id="style1399-4-5-1">.cls-1{fill:#e3e3e3;}</style>
    <style
       id="style1399-0-5">.cls-1{fill:#e3e3e3;}</style>
  </defs>
  <sodipodi:namedview
     id="base"
     pagecolor="#ffffff"
     bordercolor="#666666"
     borderopacity="1.0"
     inkscape:pageopacity="0.0"
     inkscape:pageshadow="2"
     inkscape:zoom="15.999999"
     inkscape:cx="13.842712"
     inkscape:cy="15.499304"
     inkscape:document-units="mm"
     inkscape:current-layer="svg8"
     showgrid="false"
     units="px"
     inkscape:window-width="3378"
     inkscape:window-height="1417"
     inkscape:window-x="973"
     inkscape:window-y="-8"
     inkscape:window-maximized="1"
     inkscape:snap-bbox="true"
     inkscape:bbox-paths="true"
     inkscape:bbox-nodes="true"
     inkscape:snap-bbox-edge-midpoints="true"
     inkscape:snap-bbox-midpoints="true"
     inkscape:snap-nodes="true"
     inkscape:snap-others="true"
     inkscape:snap-object-midpoints="true"
     inkscape:snap-page="true"
     inkscape:document-rotation="0">
    <sodipodi:guide
       position="8.4666666,0"
       orientation="-32,0"
       id="guide854"
       inkscape:locked="false" />
    <sodipodi:guide
       position="8.4666666,8.4666666"
       orientation="0,-32"
       id="guide856"
       inkscape:locked="false" />
    <sodipodi:guide
       position="0,8.4666814"
       orientation="32,0"
       id="guide858"
       inkscape:locked="false" />
  </sodipodi:namedview>
  <metadata
     id="metadata5">
    <rdf:RDF>
      <cc:Work
         rdf:about="">
        <dc:format>image/svg+xml</dc:format>
        <dc:type
           rdf:resource="http://purl.org/dc/dcmitype/StillImage" />
        <dc:title />
      </cc:Work>
    </rdf:RDF>
  </metadata>
  <path
     id="path849"
     style="fill:#b1b1b1;fill-opacity:1;stroke-width:0.0625002"
     d="M 4.0898438 0 C 3.6238003 -7.4014867e-17 3.1578878 0.17804968 2.8007812 0.53515625 L 0.53515625 2.8007812 C -0.17905687 3.5149944 -0.17905687 4.6666462 0.53515625 5.3808594 L 26.619141 31.464844 C 27.333354 32.179057 28.485006 32.179057 29.199219 31.464844 L 31.464844 29.199219 C 32.179057 28.485006 32.179057 27.333354 31.464844 26.619141 L 5.3808594 0.53515625 C 5.0237528 0.17804968 4.5558871 2.9605947e-16 4.0898438 0 z M 16.242188 0 C 15.474422 0 14.706876 0.29312522 14.121094 0.87890625 L 12.353516 2.6464844 L 29.353516 19.646484 L 31.121094 17.878906 C 32.292655 16.707343 32.292656 14.80828 31.121094 13.636719 L 18.363281 0.87890625 C 17.7775 0.29312522 17.009952 -1.4802974e-16 16.242188 0 z M 2.6464844 12.353516 L 0.87890625 14.121094 A 3.0000015 3.0000015 0 0 0 0 16.242188 L 0 29 C 3.7795276e-08 30.656876 1.3431234 32 3 32 L 15.757812 32 A 3.0000015 3.0000015 0 0 0 17.878906 31.121094 L 19.646484 29.353516 L 2.6464844 12.353516 z M 7 22 C 8.6568757 22 10 23.343125 10 25 C 10 26.656876 8.6568753 28 7 28 C 5.3431235 28 4 26.656876 4 25 C 4 23.343125 5.3431235 22 7 22 z "
     transform="scale(0.26458333)" />
</svg>
